<svg version="1.1" id="Layer_1" xmlns="http://www.w3.org/2000/svg" xmlns:xlink="http://www.w3.org/1999/xlink" x="0px" y="0px"
	 width="100%" viewBox="0 0 547 547" enable-background="new 0 0 547 547" xml:space="preserve">
<path fill="none" opacity="1.000000" stroke="none" 
	d="
M272.000000,548.000000 
	C181.353928,548.000000 91.207848,548.000000 1.030884,548.000000 
	C1.030884,365.728882 1.030884,183.457779 1.030884,1.093336 
	C183.229431,1.093336 365.458923,1.093336 547.844238,1.093336 
	C547.844238,183.333237 547.844238,365.666595 547.844238,548.000000 
	C456.124390,548.000000 364.312195,548.000000 272.000000,548.000000 
M210.765320,366.223541 
	C227.723267,360.478760 244.366028,353.389771 261.717041,349.321350 
	C284.634460,343.947723 308.017273,340.288177 331.363495,337.082336 
	C361.005005,333.012054 390.802429,334.303131 420.538879,336.969177 
	C444.711243,339.136383 468.847168,338.689941 492.455933,332.769562 
	C508.897888,328.646454 522.426941,319.420837 532.172974,305.188263 
	C539.780945,294.078094 544.893677,281.602081 544.564819,268.398560 
	C544.302612,257.870972 541.457397,246.946213 537.560730,237.064545 
	C528.827637,214.918320 512.747314,200.362656 488.725830,196.009811 
	C478.600250,194.174988 468.390839,192.240479 458.149658,191.715881 
	C432.295258,190.391525 406.467407,186.874619 380.497162,190.971344 
	C352.875977,195.328491 325.330627,192.611420 297.926605,188.517181 
	C272.772278,184.759033 247.761032,179.959503 222.544891,176.724548 
	C202.047470,174.094971 181.335846,174.217133 160.759109,176.904968 
	C143.027420,179.221176 126.245178,185.043518 109.451714,190.915604 
	C78.450981,201.755447 50.550335,217.251785 27.007391,240.739090 
	C11.123126,256.585785 5.245189,276.415039 6.864544,296.700073 
	C9.087276,324.543365 22.393250,346.655731 49.889217,359.518982 
	C80.206551,373.702179 112.134926,377.007019 144.556030,378.285828 
	C167.034470,379.172485 188.665833,373.072540 210.765320,366.223541 
M368.478210,364.504822 
	C367.600220,363.349884 366.009125,362.222656 365.963043,361.035370 
	C365.712830,354.594391 365.844269,348.138611 365.844269,341.477905 
	C359.630035,341.477905 353.926117,341.477905 348.284332,341.477905 
	C348.284332,363.389984 348.284332,384.968201 348.284332,406.580475 
	C354.170380,406.580475 359.753113,406.580475 365.874695,406.580475 
	C365.874695,397.751953 365.874695,389.187317 365.874695,380.411682 
	C368.828552,380.411682 371.237915,380.411682 374.321533,380.411682 
	C374.321533,389.334930 374.321533,398.039368 374.321533,406.621338 
	C380.446930,406.621338 385.894104,406.621338 391.398682,406.621338 
	C391.398682,384.691589 391.398682,363.016571 391.398682,341.426056 
	C385.495270,341.426056 380.055115,341.426056 374.054382,341.426056 
	C374.054382,349.245239 374.054382,356.807434 374.054382,364.487213 
	C372.154755,364.487213 370.824463,364.487213 368.478210,364.504822 
M397.156677,380.068848 
	C398.360901,384.356903 399.040680,388.885864 400.876953,392.883606 
	C404.878052,401.594330 412.004791,406.526550 421.642883,406.783722 
	C431.217743,407.039215 438.081879,402.147034 442.291992,393.727356 
	C448.016144,382.279816 447.999054,370.367645 444.154144,358.421844 
	C440.631439,347.477020 432.733307,341.419312 422.332794,341.159393 
	C412.686401,340.918304 403.235809,346.945984 400.074371,357.207825 
	C397.929382,364.170380 398.001465,371.815918 397.156677,380.068848 
M473.064209,341.345459 
	C466.143982,341.345459 459.223785,341.345459 452.402649,341.345459 
	C452.402649,363.377594 452.402649,385.042297 452.402649,406.487885 
	C458.400696,406.487885 463.979462,406.487885 470.022675,406.487885 
	C470.022675,399.230499 470.022675,392.335693 470.022675,385.023560 
	C472.799438,385.023560 475.118073,385.209900 477.397827,384.991241 
	C487.170532,384.053894 493.734253,377.813293 495.068695,368.353088 
	C497.271393,352.738098 490.102295,343.608459 473.064209,341.345459 
M309.765198,356.537781 
	C307.648926,364.136627 309.453613,370.681580 315.201538,376.050751 
	C317.382294,378.087799 319.771240,379.908600 322.123810,381.753296 
	C324.492584,383.610718 326.931335,386.141357 324.702484,388.721893 
	C323.351318,390.286255 319.539581,390.794861 317.242889,390.199005 
	C314.448700,389.474091 312.085236,387.089020 309.146637,385.167908 
	C309.146637,388.681335 309.147430,391.800079 309.146515,394.918823 
	C309.143402,405.300385 309.143158,405.300354 319.487762,406.673492 
	C328.994476,407.935394 337.782928,403.146240 341.516785,394.669006 
	C345.372589,385.914917 343.306396,376.545013 336.004547,370.262299 
	C333.866486,368.422638 331.158600,367.151093 329.334167,365.072876 
	C328.025421,363.582062 327.751953,361.182434 327.016602,359.188232 
	C329.228943,358.626831 331.735840,357.135895 333.584686,357.721710 
	C336.363403,358.602203 338.681244,360.937225 341.549408,362.895844 
	C341.549408,357.678070 341.813660,352.706451 341.401733,347.791565 
	C341.263214,346.138916 339.754608,343.820129 338.278168,343.183563 
	C325.895325,337.844513 314.760956,342.895264 309.765198,356.537781 
z"/>
<path fill="#080A0B" opacity="1.000000" stroke="none" 
	d="
M210.394470,366.374817 
	C188.665833,373.072540 167.034470,379.172485 144.556030,378.285828 
	C112.134926,377.007019 80.206551,373.702179 49.889217,359.518982 
	C22.393250,346.655731 9.087276,324.543365 6.864544,296.700073 
	C5.245189,276.415039 11.123126,256.585785 27.007391,240.739090 
	C50.550335,217.251785 78.450981,201.755447 109.451714,190.915604 
	C126.245178,185.043518 143.027420,179.221176 160.759109,176.904968 
	C181.335846,174.217133 202.047470,174.094971 222.544891,176.724548 
	C247.761032,179.959503 272.772278,184.759033 297.926605,188.517181 
	C325.330627,192.611420 352.875977,195.328491 380.497162,190.971344 
	C406.467407,186.874619 432.295258,190.391525 458.149658,191.715881 
	C468.390839,192.240479 478.600250,194.174988 488.725830,196.009811 
	C512.747314,200.362656 528.827637,214.918320 537.560730,237.064545 
	C541.457397,246.946213 544.302612,257.870972 544.564819,268.398560 
	C544.893677,281.602081 539.780945,294.078094 532.172974,305.188263 
	C522.426941,319.420837 508.897888,328.646454 492.455933,332.769562 
	C468.847168,338.689941 444.711243,339.136383 420.538879,336.969177 
	C390.802429,334.303131 361.005005,333.012054 331.363495,337.082336 
	C308.017273,340.288177 284.634460,343.947723 261.717041,349.321350 
	C244.366028,353.389771 227.723267,360.478760 210.394470,366.374817 
M438.703613,210.102783 
	C436.213013,210.822144 433.722382,211.541519 431.484467,212.187912 
	C431.744476,217.295578 432.072205,221.986023 432.205383,226.681961 
	C432.581543,239.947052 432.799194,253.216965 433.231812,266.480011 
	C433.546997,276.143738 433.905029,285.816803 434.737396,295.443054 
	C434.887268,297.176392 437.267151,299.853851 438.908813,300.092651 
	C442.722748,300.647430 446.714539,299.979401 450.464264,299.814453 
	C450.464264,293.874359 450.424530,288.464386 450.490295,283.055695 
	C450.508331,281.572968 450.842590,280.094055 451.031738,278.613403 
	C452.462158,279.120880 454.220551,279.259888 455.270630,280.194672 
	C463.068481,287.136261 470.696503,294.268280 478.454376,301.255524 
	C479.823761,302.488861 481.831360,304.463440 483.067902,304.159271 
	C491.109894,302.181091 498.033905,297.905090 505.791809,292.042480 
	C500.398010,288.992584 495.619843,286.906372 491.590271,283.837250 
	C487.650574,280.836578 484.474365,276.833466 480.963013,273.270386 
	C481.369385,272.790649 481.775726,272.310913 482.182068,271.831207 
	C484.029999,272.431030 486.029022,273.818542 487.700348,273.497864 
	C496.084930,271.889221 509.042419,260.572784 510.375122,252.040070 
	C511.404297,245.450577 509.985321,239.738632 508.131927,233.590088 
	C504.543060,221.684097 489.923248,209.534027 477.374756,209.081848 
	C472.750336,208.915207 467.801605,209.800934 463.567017,208.442108 
	C455.120422,205.731689 447.455292,208.370026 438.703613,210.102783 
M140.958008,261.536591 
	C131.293549,251.981888 121.671211,242.383575 111.896309,232.943237 
	C110.968788,232.047455 108.581161,231.405258 107.771988,231.959686 
	C106.731133,232.672882 105.898460,234.879517 106.198418,236.155518 
	C107.550369,241.906525 108.221024,247.461655 107.401817,253.513184 
	C106.402878,260.892456 107.237411,268.499420 106.818954,275.982147 
	C106.001289,290.603943 104.864197,305.207855 103.822906,320.348999 
	C108.375427,320.553070 113.790817,320.264923 118.985481,321.201324 
	C122.940842,321.914276 124.032043,321.505798 123.751183,317.306610 
	C122.648102,300.814514 121.815239,284.303986 120.977005,267.795471 
	C120.931519,266.899628 121.574219,265.378479 122.208008,265.188721 
	C122.991104,264.954315 124.442787,265.536163 125.006363,266.243042 
	C126.937119,268.664825 128.500290,271.376862 130.392654,273.832520 
	C138.330444,284.133148 146.101639,294.575684 154.393997,304.585083 
	C160.805862,312.324554 167.851273,319.544891 174.748215,326.870636 
	C175.791321,327.978577 177.559219,328.404175 178.574463,328.929443 
	C178.899155,322.669495 179.292145,316.520508 179.523254,310.365479 
	C180.178940,292.902191 180.993378,275.440155 181.280518,257.969971 
	C181.406815,250.285110 180.494888,242.574478 179.861191,234.891464 
	C179.686325,232.771271 178.816864,230.708359 178.032761,227.734039 
	C172.212677,227.734039 165.584076,227.734039 158.903915,227.734039 
	C158.380295,244.853043 157.873215,261.430939 157.366135,278.008850 
	C156.827682,278.018646 156.289246,278.028442 155.750809,278.038269 
	C150.958725,272.728973 146.166641,267.419678 140.958008,261.536591 
M189.052795,291.512451 
	C189.019302,298.318054 188.843338,305.128754 189.086502,311.924469 
	C189.129181,313.116821 190.993271,315.302155 191.909241,315.247162 
	C206.922852,314.346161 221.922867,313.201691 236.912079,311.946381 
	C237.997406,311.855499 239.827515,310.530273 239.866653,309.710022 
	C240.130478,304.180267 240.004181,298.631927 240.004181,292.484589 
	C236.579758,292.863342 233.687042,293.197510 230.790985,293.499695 
	C227.820969,293.809631 224.840561,294.348816 221.878922,294.267792 
	C220.458328,294.228943 217.887436,293.030914 217.862457,292.289581 
	C217.714783,287.907684 217.532883,283.307404 218.815430,279.238586 
	C219.172241,278.106689 224.459152,278.539001 227.480911,278.221405 
	C227.785736,278.189362 228.066971,277.932892 228.826767,277.536804 
	C228.227081,273.528839 228.675705,268.630768 226.553650,265.445129 
	C225.369797,263.667938 219.912323,264.737518 216.351959,264.522491 
	C216.704880,257.892700 217.187378,251.180435 217.388168,244.459747 
	C217.636887,236.135757 217.519897,227.798874 217.892685,219.482422 
	C217.958023,218.024597 219.476974,215.610916 220.632080,215.410461 
	C224.408997,214.755035 228.594467,213.989075 232.124588,215.002014 
	C236.511337,216.260742 236.498184,213.432922 236.543625,211.314819 
	C236.627823,207.389221 235.952377,203.447327 235.552246,199.062500 
	C219.820618,198.467697 204.128204,197.874359 189.013000,197.302856 
	C189.013000,228.361847 189.013000,259.439850 189.052795,291.512451 
M402.305450,229.262497 
	C402.477844,225.671753 402.447662,222.053101 402.936493,218.505981 
	C403.099640,217.322205 404.486023,215.510635 405.493103,215.380722 
	C409.353699,214.882690 413.519592,214.080231 417.131500,215.042725 
	C421.096954,216.099457 421.190918,214.145523 421.193481,211.750793 
	C421.197876,207.646362 420.846436,203.541565 420.604889,198.634430 
	C412.458038,198.634430 404.556854,198.881485 396.678345,198.564667 
	C388.862335,198.250381 381.069183,197.368240 373.795013,196.778076 
	C373.795013,236.528046 373.795013,275.782715 373.795013,316.068848 
	C390.571014,314.681366 406.368073,313.421173 422.146729,311.962036 
	C423.159241,311.868408 424.790741,310.275269 424.839325,309.314178 
	C425.105164,304.058716 424.965973,298.782745 424.965973,293.018860 
	C423.138214,292.931305 421.371674,292.639404 419.648895,292.804565 
	C415.184967,293.232422 410.722595,293.749481 406.294220,294.449829 
	C403.326752,294.919098 402.335083,293.283600 402.133301,290.909973 
	C401.191193,279.827759 402.157013,278.718109 412.835907,278.117493 
	C412.979187,278.109406 413.113495,277.942627 413.251984,277.849915 
	C412.502838,264.921417 412.502838,264.921417 402.333649,264.724091 
	C402.333649,253.194275 402.333649,241.690353 402.305450,229.262497 
M289.122681,226.119736 
	C287.163422,226.045593 285.140533,225.619919 283.256378,225.960785 
	C276.653564,227.155334 270.069183,228.491531 263.546173,230.058746 
	C261.919434,230.449585 259.618927,231.622787 259.217896,232.925735 
	C257.167175,239.588577 255.174210,246.333267 254.012405,253.193512 
	C250.704041,272.729156 247.800186,292.333466 244.760483,311.914337 
	C244.360855,314.488678 244.097412,317.084167 243.747574,319.854523 
	C249.369553,321.343201 254.639114,322.738525 260.429474,324.271790 
	C260.924500,319.605652 261.363037,314.380768 262.095123,309.197357 
	C262.332642,307.515533 262.989044,304.847290 264.053131,304.507629 
	C268.829407,302.983002 273.821472,302.134552 279.036469,300.975342 
	C279.635681,307.023621 280.113251,311.843811 280.734406,318.113678 
	C283.705688,317.560028 287.053436,316.873474 290.426880,316.353058 
	C291.243073,316.227112 292.141022,316.666534 293.006409,316.817291 
	C295.659607,317.279572 298.850098,318.805084 300.798950,317.837372 
	C302.328888,317.077759 302.825439,313.242035 302.887756,310.750549 
	C302.985718,306.833588 302.202362,302.903839 302.021332,298.968933 
	C301.493500,287.498474 301.262329,276.011505 300.553741,264.553314 
	C300.107452,257.336639 299.018188,250.159409 298.207245,242.965637 
	C297.755676,238.959641 297.494385,234.914093 296.712067,230.972763 
	C296.416290,229.482788 295.121124,227.940323 293.858276,226.976212 
	C292.925293,226.263931 291.306519,226.449921 289.122681,226.119736 
M308.832336,309.868134 
	C308.735229,314.706482 308.510193,319.547974 308.629608,324.380951 
	C308.660065,325.613403 309.602203,327.726807 310.432251,327.891785 
	C316.560120,329.109650 322.765656,329.936584 329.760010,331.011505 
	C329.760010,326.658356 329.645203,322.164001 329.786163,317.677673 
	C330.013641,310.438416 331.093323,303.147888 330.501404,295.987457 
	C330.084930,290.949493 330.856781,286.988983 333.894165,282.909546 
	C336.218140,285.423187 338.634766,287.346588 340.166901,289.818298 
	C345.691528,298.730652 350.991119,307.785858 356.216034,316.878815 
	C357.940796,319.880432 359.396210,320.068420 361.827820,317.618134 
	C366.083374,313.329895 365.029327,311.668701 360.654907,305.756439 
	C353.719055,296.382233 348.055786,286.062195 341.967255,276.073364 
	C341.471466,275.259949 341.364990,273.520020 341.891296,272.885254 
	C345.177582,268.921814 348.425690,264.856384 352.204437,261.389313 
	C356.998047,256.991119 362.284821,253.130371 368.173340,248.380997 
	C363.470428,245.596252 360.055115,243.306091 356.378235,241.569901 
	C355.356110,241.087265 353.070740,241.797180 352.208618,242.735321 
	C349.586090,245.589111 347.297699,248.767136 345.070312,251.952545 
	C344.619141,252.597794 345.005035,253.828339 345.005035,254.263916 
	C343.389862,255.302612 341.531616,256.180573 340.087494,257.508789 
	C338.388733,259.071167 337.145111,261.119659 335.508148,262.762115 
	C334.823242,263.449249 333.601593,263.994629 332.686462,263.912018 
	C332.136078,263.862305 331.404572,262.524597 331.275513,261.685577 
	C330.779114,258.458069 330.428070,255.203934 330.141449,251.949310 
	C329.476624,244.400177 328.880798,236.845001 328.194946,228.540756 
	C320.536652,230.904510 313.633789,233.035095 306.563507,235.217361 
	C307.038055,238.550049 307.656708,241.124603 307.732483,243.715042 
	C308.213684,260.166229 308.611603,276.620148 308.954498,293.074860 
	C309.064911,298.374420 308.926208,303.679138 308.832336,309.868134 
M83.232224,307.514221 
	C83.088898,312.789001 81.183929,317.156586 75.550049,317.995117 
	C67.018219,319.264954 57.786884,317.119965 53.570011,308.520782 
	C50.697060,302.662140 46.916801,303.024689 42.446526,303.099792 
	C42.653996,305.787994 42.549824,308.236816 43.076153,310.541595 
	C44.619534,317.300079 44.137974,325.225098 51.253750,329.300812 
	C61.306629,335.058868 72.112785,335.449249 82.915367,331.718689 
	C90.821632,328.988312 95.021942,322.092133 97.246674,314.849579 
	C98.656914,310.258575 97.928551,304.417542 96.448021,299.670868 
	C94.235237,292.576538 88.732094,287.334808 82.790550,283.013947 
	C76.776138,278.640106 70.349030,274.834473 64.116943,270.758209 
	C63.384899,270.279388 62.685383,269.720184 62.068428,269.100952 
	C57.464439,264.479919 57.147186,258.067535 55.195984,252.353424 
	C54.071564,249.060562 56.773979,241.793060 59.640575,240.013824 
	C63.293411,237.746597 67.002083,235.553055 70.800621,233.543091 
	C73.008141,232.375015 75.484810,230.759079 77.759468,230.879013 
	C82.119896,231.108917 87.233551,237.640167 87.471642,242.353683 
	C87.615578,245.203415 87.371437,248.077728 87.609985,250.915085 
	C87.699219,251.976486 88.413551,253.310989 89.270065,253.927109 
	C93.462761,256.943085 96.108894,252.298355 99.609703,251.721970 
	C99.313988,250.423798 98.911751,249.223450 98.782272,247.994370 
	C98.127907,241.783066 98.086700,235.440338 96.706169,229.400696 
	C96.021805,226.406693 93.498314,222.830856 90.815361,221.462921 
	C76.323074,214.073959 64.719803,219.306366 53.750343,228.945206 
	C51.284595,231.111832 48.597935,234.117599 48.020863,237.122650 
	C46.701038,243.995575 47.212711,251.219528 45.900318,258.094727 
	C43.958733,268.265930 50.071140,274.844940 55.881695,281.003235 
	C60.361649,285.751282 66.351860,289.548828 72.352150,292.261261 
	C79.033295,295.281464 81.200592,300.643982 83.232224,307.514221 
z"/>
<path fill="#070707" opacity="1.000000" stroke="none" 
	d="
M368.986176,364.496033 
	C370.824463,364.487213 372.154755,364.487213 374.054382,364.487213 
	C374.054382,356.807434 374.054382,349.245239 374.054382,341.426056 
	C380.055115,341.426056 385.495270,341.426056 391.398682,341.426056 
	C391.398682,363.016571 391.398682,384.691589 391.398682,406.621338 
	C385.894104,406.621338 380.446930,406.621338 374.321533,406.621338 
	C374.321533,398.039368 374.321533,389.334930 374.321533,380.411682 
	C371.237915,380.411682 368.828552,380.411682 365.874695,380.411682 
	C365.874695,389.187317 365.874695,397.751953 365.874695,406.580475 
	C359.753113,406.580475 354.170380,406.580475 348.284332,406.580475 
	C348.284332,384.968201 348.284332,363.389984 348.284332,341.477905 
	C353.926117,341.477905 359.630035,341.477905 365.844269,341.477905 
	C365.844269,348.138611 365.712830,354.594391 365.963043,361.035370 
	C366.009125,362.222656 367.600220,363.349884 368.986176,364.496033 
z"/>
<path fill="#050505" opacity="1.000000" stroke="none" 
	d="
M397.119324,379.612427 
	C398.001465,371.815918 397.929382,364.170380 400.074371,357.207825 
	C403.235809,346.945984 412.686401,340.918304 422.332794,341.159393 
	C432.733307,341.419312 440.631439,347.477020 444.154144,358.421844 
	C447.999054,370.367645 448.016144,382.279816 442.291992,393.727356 
	C438.081879,402.147034 431.217743,407.039215 421.642883,406.783722 
	C412.004791,406.526550 404.878052,401.594330 400.876953,392.883606 
	C399.040680,388.885864 398.360901,384.356903 397.119324,379.612427 
M427.866669,366.076447 
	C427.692139,365.267334 427.737244,364.307404 427.303741,363.676178 
	C425.735138,361.392059 424.334290,357.790070 422.265472,357.314178 
	C418.499390,356.447876 416.722412,360.383728 416.532196,363.393463 
	C416.077698,370.586151 416.021637,377.863525 416.664886,385.029480 
	C416.855225,387.149628 419.913452,389.012299 421.657471,390.992981 
	C423.449066,389.081726 426.452728,387.367096 426.800690,385.221680 
	C427.771759,379.234131 427.642670,373.068176 427.866669,366.076447 
z"/>
<path fill="#050505" opacity="1.000000" stroke="none" 
	d="
M473.512268,341.408844 
	C490.102295,343.608459 497.271393,352.738098 495.068695,368.353088 
	C493.734253,377.813293 487.170532,384.053894 477.397827,384.991241 
	C475.118073,385.209900 472.799438,385.023560 470.022675,385.023560 
	C470.022675,392.335693 470.022675,399.230499 470.022675,406.487885 
	C463.979462,406.487885 458.400696,406.487885 452.402649,406.487885 
	C452.402649,385.042297 452.402649,363.377594 452.402649,341.345459 
	C459.223785,341.345459 466.143982,341.345459 473.512268,341.408844 
M473.761841,357.108215 
	C472.556458,356.983490 471.351074,356.858734 470.012878,356.720245 
	C470.012878,361.833374 470.012878,366.431946 470.012878,372.967834 
	C473.013519,370.598816 475.802032,369.432404 476.772888,367.398407 
	C478.402496,363.984161 477.874969,360.268799 473.761841,357.108215 
z"/>
<path fill="#070707" opacity="1.000000" stroke="none" 
	d="
M309.854126,356.136597 
	C314.760956,342.895264 325.895325,337.844513 338.278168,343.183563 
	C339.754608,343.820129 341.263214,346.138916 341.401733,347.791565 
	C341.813660,352.706451 341.549408,357.678070 341.549408,362.895844 
	C338.681244,360.937225 336.363403,358.602203 333.584686,357.721710 
	C331.735840,357.135895 329.228943,358.626831 327.016602,359.188232 
	C327.751953,361.182434 328.025421,363.582062 329.334167,365.072876 
	C331.158600,367.151093 333.866486,368.422638 336.004547,370.262299 
	C343.306396,376.545013 345.372589,385.914917 341.516785,394.669006 
	C337.782928,403.146240 328.994476,407.935394 319.487762,406.673492 
	C309.143158,405.300354 309.143402,405.300385 309.146515,394.918823 
	C309.147430,391.800079 309.146637,388.681335 309.146637,385.167908 
	C312.085236,387.089020 314.448700,389.474091 317.242889,390.199005 
	C319.539581,390.794861 323.351318,390.286255 324.702484,388.721893 
	C326.931335,386.141357 324.492584,383.610718 322.123810,381.753296 
	C319.771240,379.908600 317.382294,378.087799 315.201538,376.050751 
	C309.453613,370.681580 307.648926,364.136627 309.854126,356.136597 
z"/>
<path fill="#FAFAFA" opacity="1.000000" stroke="none" 
	d="
M439.123413,210.089401 
	C447.455292,208.370026 455.120422,205.731689 463.567017,208.442108 
	C467.801605,209.800934 472.750336,208.915207 477.374756,209.081848 
	C489.923248,209.534027 504.543060,221.684097 508.131927,233.590088 
	C509.985321,239.738632 511.404297,245.450577 510.375122,252.040070 
	C509.042419,260.572784 496.084930,271.889221 487.700348,273.497864 
	C486.029022,273.818542 484.029999,272.431030 482.182068,271.831207 
	C481.775726,272.310913 481.369385,272.790649 480.963013,273.270386 
	C484.474365,276.833466 487.650574,280.836578 491.590271,283.837250 
	C495.619843,286.906372 500.398010,288.992584 505.791809,292.042480 
	C498.033905,297.905090 491.109894,302.181091 483.067902,304.159271 
	C481.831360,304.463440 479.823761,302.488861 478.454376,301.255524 
	C470.696503,294.268280 463.068481,287.136261 455.270630,280.194672 
	C454.220551,279.259888 452.462158,279.120880 451.031738,278.613403 
	C450.842590,280.094055 450.508331,281.572968 450.490295,283.055695 
	C450.424530,288.464386 450.464264,293.874359 450.464264,299.814453 
	C446.714539,299.979401 442.722748,300.647430 438.908813,300.092651 
	C437.267151,299.853851 434.887268,297.176392 434.737396,295.443054 
	C433.905029,285.816803 433.546997,276.143738 433.231812,266.480011 
	C432.799194,253.216965 432.581543,239.947052 432.205383,226.681961 
	C432.072205,221.986023 431.744476,217.295578 431.484467,212.187912 
	C433.722382,211.541519 436.213013,210.822144 439.123413,210.089401 
z"/>
<path fill="#F9FAFA" opacity="1.000000" stroke="none" 
	d="
M141.166290,261.823486 
	C146.166641,267.419678 150.958725,272.728973 155.750809,278.038269 
	C156.289246,278.028442 156.827682,278.018646 157.366135,278.008850 
	C157.873215,261.430939 158.380295,244.853043 158.903915,227.734039 
	C165.584076,227.734039 172.212677,227.734039 178.032761,227.734039 
	C178.816864,230.708359 179.686325,232.771271 179.861191,234.891464 
	C180.494888,242.574478 181.406815,250.285110 181.280518,257.969971 
	C180.993378,275.440155 180.178940,292.902191 179.523254,310.365479 
	C179.292145,316.520508 178.899155,322.669495 178.574463,328.929443 
	C177.559219,328.404175 175.791321,327.978577 174.748215,326.870636 
	C167.851273,319.544891 160.805862,312.324554 154.393997,304.585083 
	C146.101639,294.575684 138.330444,284.133148 130.392654,273.832520 
	C128.500290,271.376862 126.937119,268.664825 125.006363,266.243042 
	C124.442787,265.536163 122.991104,264.954315 122.208008,265.188721 
	C121.574219,265.378479 120.931519,266.899628 120.977005,267.795471 
	C121.815239,284.303986 122.648102,300.814514 123.751183,317.306610 
	C124.032043,321.505798 122.940842,321.914276 118.985481,321.201324 
	C113.790817,320.264923 108.375427,320.553070 103.822906,320.348999 
	C104.864197,305.207855 106.001289,290.603943 106.818954,275.982147 
	C107.237411,268.499420 106.402878,260.892456 107.401817,253.513184 
	C108.221024,247.461655 107.550369,241.906525 106.198418,236.155518 
	C105.898460,234.879517 106.731133,232.672882 107.771988,231.959686 
	C108.581161,231.405258 110.968788,232.047455 111.896309,232.943237 
	C121.671211,242.383575 131.293549,251.981888 141.166290,261.823486 
z"/>
<path fill="#FBFBFB" opacity="1.000000" stroke="none" 
	d="
M189.032898,291.015137 
	C189.013000,259.439850 189.013000,228.361847 189.013000,197.302856 
	C204.128204,197.874359 219.820618,198.467697 235.552246,199.062500 
	C235.952377,203.447327 236.627823,207.389221 236.543625,211.314819 
	C236.498184,213.432922 236.511337,216.260742 232.124588,215.002014 
	C228.594467,213.989075 224.408997,214.755035 220.632080,215.410461 
	C219.476974,215.610916 217.958023,218.024597 217.892685,219.482422 
	C217.519897,227.798874 217.636887,236.135757 217.388168,244.459747 
	C217.187378,251.180435 216.704880,257.892700 216.351959,264.522491 
	C219.912323,264.737518 225.369797,263.667938 226.553650,265.445129 
	C228.675705,268.630768 228.227081,273.528839 228.826767,277.536804 
	C228.066971,277.932892 227.785736,278.189362 227.480911,278.221405 
	C224.459152,278.539001 219.172241,278.106689 218.815430,279.238586 
	C217.532883,283.307404 217.714783,287.907684 217.862457,292.289581 
	C217.887436,293.030914 220.458328,294.228943 221.878922,294.267792 
	C224.840561,294.348816 227.820969,293.809631 230.790985,293.499695 
	C233.687042,293.197510 236.579758,292.863342 240.004181,292.484589 
	C240.004181,298.631927 240.130478,304.180267 239.866653,309.710022 
	C239.827515,310.530273 237.997406,311.855499 236.912079,311.946381 
	C221.922867,313.201691 206.922852,314.346161 191.909241,315.247162 
	C190.993271,315.302155 189.129181,313.116821 189.086502,311.924469 
	C188.843338,305.128754 189.019302,298.318054 189.032898,291.015137 
z"/>
<path fill="#FBFBFC" opacity="1.000000" stroke="none" 
	d="
M402.319550,229.724472 
	C402.333649,241.690353 402.333649,253.194275 402.333649,264.724091 
	C412.502838,264.921417 412.502838,264.921417 413.251984,277.849915 
	C413.113495,277.942627 412.979187,278.109406 412.835907,278.117493 
	C402.157013,278.718109 401.191193,279.827759 402.133301,290.909973 
	C402.335083,293.283600 403.326752,294.919098 406.294220,294.449829 
	C410.722595,293.749481 415.184967,293.232422 419.648895,292.804565 
	C421.371674,292.639404 423.138214,292.931305 424.965973,293.018860 
	C424.965973,298.782745 425.105164,304.058716 424.839325,309.314178 
	C424.790741,310.275269 423.159241,311.868408 422.146729,311.962036 
	C406.368073,313.421173 390.571014,314.681366 373.795013,316.068848 
	C373.795013,275.782715 373.795013,236.528046 373.795013,196.778076 
	C381.069183,197.368240 388.862335,198.250381 396.678345,198.564667 
	C404.556854,198.881485 412.458038,198.634430 420.604889,198.634430 
	C420.846436,203.541565 421.197876,207.646362 421.193481,211.750793 
	C421.190918,214.145523 421.096954,216.099457 417.131500,215.042725 
	C413.519592,214.080231 409.353699,214.882690 405.493103,215.380722 
	C404.486023,215.510635 403.099640,217.322205 402.936493,218.505981 
	C402.447662,222.053101 402.477844,225.671753 402.319550,229.724472 
z"/>
<path fill="#FBFCFC" opacity="1.000000" stroke="none" 
	d="
M289.557983,226.177719 
	C291.306519,226.449921 292.925293,226.263931 293.858276,226.976212 
	C295.121124,227.940323 296.416290,229.482788 296.712067,230.972763 
	C297.494385,234.914093 297.755676,238.959641 298.207245,242.965637 
	C299.018188,250.159409 300.107452,257.336639 300.553741,264.553314 
	C301.262329,276.011505 301.493500,287.498474 302.021332,298.968933 
	C302.202362,302.903839 302.985718,306.833588 302.887756,310.750549 
	C302.825439,313.242035 302.328888,317.077759 300.798950,317.837372 
	C298.850098,318.805084 295.659607,317.279572 293.006409,316.817291 
	C292.141022,316.666534 291.243073,316.227112 290.426880,316.353058 
	C287.053436,316.873474 283.705688,317.560028 280.734406,318.113678 
	C280.113251,311.843811 279.635681,307.023621 279.036469,300.975342 
	C273.821472,302.134552 268.829407,302.983002 264.053131,304.507629 
	C262.989044,304.847290 262.332642,307.515533 262.095123,309.197357 
	C261.363037,314.380768 260.924500,319.605652 260.429474,324.271790 
	C254.639114,322.738525 249.369553,321.343201 243.747574,319.854523 
	C244.097412,317.084167 244.360855,314.488678 244.760483,311.914337 
	C247.800186,292.333466 250.704041,272.729156 254.012405,253.193512 
	C255.174210,246.333267 257.167175,239.588577 259.217896,232.925735 
	C259.618927,231.622787 261.919434,230.449585 263.546173,230.058746 
	C270.069183,228.491531 276.653564,227.155334 283.256378,225.960785 
	C285.140533,225.619919 287.163422,226.045593 289.557983,226.177719 
z"/>
<path fill="#F8F9F9" opacity="1.000000" stroke="none" 
	d="
M308.866882,309.424805 
	C308.926208,303.679138 309.064911,298.374420 308.954498,293.074860 
	C308.611603,276.620148 308.213684,260.166229 307.732483,243.715042 
	C307.656708,241.124603 307.038055,238.550049 306.563507,235.217361 
	C313.633789,233.035095 320.536652,230.904510 328.194946,228.540756 
	C328.880798,236.845001 329.476624,244.400177 330.141449,251.949310 
	C330.428070,255.203934 330.779114,258.458069 331.275513,261.685577 
	C331.404572,262.524597 332.136078,263.862305 332.686462,263.912018 
	C333.601593,263.994629 334.823242,263.449249 335.508148,262.762115 
	C337.145111,261.119659 338.388733,259.071167 340.087494,257.508789 
	C341.531616,256.180573 343.389862,255.302612 345.005035,254.263916 
	C345.005035,253.828339 344.619141,252.597794 345.070312,251.952545 
	C347.297699,248.767136 349.586090,245.589111 352.208618,242.735321 
	C353.070740,241.797180 355.356110,241.087265 356.378235,241.569901 
	C360.055115,243.306091 363.470428,245.596252 368.173340,248.380997 
	C362.284821,253.130371 356.998047,256.991119 352.204437,261.389313 
	C348.425690,264.856384 345.177582,268.921814 341.891296,272.885254 
	C341.364990,273.520020 341.471466,275.259949 341.967255,276.073364 
	C348.055786,286.062195 353.719055,296.382233 360.654907,305.756439 
	C365.029327,311.668701 366.083374,313.329895 361.827820,317.618134 
	C359.396210,320.068420 357.940796,319.880432 356.216034,316.878815 
	C350.991119,307.785858 345.691528,298.730652 340.166901,289.818298 
	C338.634766,287.346588 336.218140,285.423187 333.894165,282.909546 
	C330.856781,286.988983 330.084930,290.949493 330.501404,295.987457 
	C331.093323,303.147888 330.013641,310.438416 329.786163,317.677673 
	C329.645203,322.164001 329.760010,326.658356 329.760010,331.011505 
	C322.765656,329.936584 316.560120,329.109650 310.432251,327.891785 
	C309.602203,327.726807 308.660065,325.613403 308.629608,324.380951 
	C308.510193,319.547974 308.735229,314.706482 308.866882,309.424805 
z"/>
<path fill="#F4F5F5" opacity="1.000000" stroke="none" 
	d="
M83.179642,307.095459 
	C81.200592,300.643982 79.033295,295.281464 72.352150,292.261261 
	C66.351860,289.548828 60.361649,285.751282 55.881695,281.003235 
	C50.071140,274.844940 43.958733,268.265930 45.900318,258.094727 
	C47.212711,251.219528 46.701038,243.995575 48.020863,237.122650 
	C48.597935,234.117599 51.284595,231.111832 53.750343,228.945206 
	C64.719803,219.306366 76.323074,214.073959 90.815361,221.462921 
	C93.498314,222.830856 96.021805,226.406693 96.706169,229.400696 
	C98.086700,235.440338 98.127907,241.783066 98.782272,247.994370 
	C98.911751,249.223450 99.313988,250.423798 99.609703,251.721970 
	C96.108894,252.298355 93.462761,256.943085 89.270065,253.927109 
	C88.413551,253.310989 87.699219,251.976486 87.609985,250.915085 
	C87.371437,248.077728 87.615578,245.203415 87.471642,242.353683 
	C87.233551,237.640167 82.119896,231.108917 77.759468,230.879013 
	C75.484810,230.759079 73.008141,232.375015 70.800621,233.543091 
	C67.002083,235.553055 63.293411,237.746597 59.640575,240.013824 
	C56.773979,241.793060 54.071564,249.060562 55.195984,252.353424 
	C57.147186,258.067535 57.464439,264.479919 62.068428,269.100952 
	C62.685383,269.720184 63.384899,270.279388 64.116943,270.758209 
	C70.349030,274.834473 76.776138,278.640106 82.790550,283.013947 
	C88.732094,287.334808 94.235237,292.576538 96.448021,299.670868 
	C97.928551,304.417542 98.656914,310.258575 97.246674,314.849579 
	C95.021942,322.092133 90.821632,328.988312 82.915367,331.718689 
	C72.112785,335.449249 61.306629,335.058868 51.253750,329.300812 
	C44.137974,325.225098 44.619534,317.300079 43.076153,310.541595 
	C42.549824,308.236816 42.653996,305.787994 42.446526,303.099792 
	C46.916801,303.024689 50.697060,302.662140 53.570011,308.520782 
	C57.786884,317.119965 67.018219,319.264954 75.550049,317.995117 
	C81.183929,317.156586 83.088898,312.789001 83.179642,307.095459 
z"/>
<path fill="#F7F7F7" opacity="1.000000" stroke="none" 
	d="
M427.907288,366.524536 
	C427.642670,373.068176 427.771759,379.234131 426.800690,385.221680 
	C426.452728,387.367096 423.449066,389.081726 421.657471,390.992981 
	C419.913452,389.012299 416.855225,387.149628 416.664886,385.029480 
	C416.021637,377.863525 416.077698,370.586151 416.532196,363.393463 
	C416.722412,360.383728 418.499390,356.447876 422.265472,357.314178 
	C424.334290,357.790070 425.735138,361.392059 427.303741,363.676178 
	C427.737244,364.307404 427.692139,365.267334 427.907288,366.524536 
z"/>
<path fill="#F8F8F8" opacity="1.000000" stroke="none" 
	d="
M474.121582,357.367859 
	C477.874969,360.268799 478.402496,363.984161 476.772888,367.398407 
	C475.802032,369.432404 473.013519,370.598816 470.012878,372.967834 
	C470.012878,366.431946 470.012878,361.833374 470.012878,356.720245 
	C471.351074,356.858734 472.556458,356.983490 474.121582,357.367859 
z"/>
</svg>